<svg width="40" height="48" viewBox="0 0 40 48" fill="none" xmlns="http://www.w3.org/2000/svg">
<path d="M26 31.5V41.036C26 42.4855 25.4241 43.8756 24.3989 44.9003C23.3738 45.9251 21.9835 46.5005 20.534 46.5H7.466C6.01651 46.5005 4.62621 45.9251 3.60108 44.9003C2.57594 43.8756 2 42.4855 2 41.036V9.966C2 6.94721 4.44721 4.5 7.466 4.5H11" stroke="#FF5252" stroke-width="3" stroke-linecap="round" stroke-linejoin="round"/>
<path d="M2 37.5H26" stroke="#FF5252" stroke-width="3" stroke-linecap="round" stroke-linejoin="round"/>
<path fill-rule="evenodd" clip-rule="evenodd" d="M26 25.5C32.6274 25.5 38 20.1274 38 13.5C38 6.87258 32.6274 1.5 26 1.5C19.3726 1.5 14 6.87258 14 13.5C14 20.1274 19.3726 25.5 26 25.5Z" fill="#FFA39E" stroke="#FF5252" stroke-width="3" stroke-linecap="round" stroke-linejoin="round"/>
<path d="M31.3481 10.0117L25.5481 17.7577C25.2866 18.1051 24.8876 18.3223 24.454 18.3533C24.0203 18.3844 23.5944 18.2263 23.2861 17.9197L20.2861 14.9197" stroke="#FF5252" stroke-width="3" stroke-linecap="round" stroke-linejoin="round"/>
</svg>
