<svg width="20" height="16" viewBox="0 0 20 16" fill="none" xmlns="http://www.w3.org/2000/svg">
<path d="M0.6 8.92C0.6 7.48 0.786667 6.25333 1.16 5.24C1.53333 4.22667 2.06667 3.4 2.76 2.76C3.48 2.12 4.33333 1.65333 5.32 1.36C6.33333 1.04 7.46667 0.853333 8.72 0.799998L9.32 3.72C6.6 4.04 5.30667 5.29333 5.44 7.48H8.4V15.28H0.6V8.92ZM11.2 8.92C11.2 7.48 11.3867 6.25333 11.76 5.24C12.16 4.22667 12.7067 3.4 13.4 2.76C14.0933 2.12 14.9333 1.65333 15.92 1.36C16.9333 1.04 18.0667 0.853333 19.32 0.799998L19.96 3.72C17.2667 4.04 15.96 5.29333 16.04 7.48H19V15.28H11.2V8.92Z" fill="#FF6B6B"/>
</svg>
